<?xml version="1.0" encoding="UTF-8" standalone="no"?>
<!-- Created with Inkscape (http://www.inkscape.org/) -->

<svg
   xmlns:dc="http://purl.org/dc/elements/1.1/"
   xmlns:cc="http://creativecommons.org/ns#"
   xmlns:rdf="http://www.w3.org/1999/02/22-rdf-syntax-ns#"
   xmlns:svg="http://www.w3.org/2000/svg"
   xmlns="http://www.w3.org/2000/svg"
   xmlns:sodipodi="http://sodipodi.sourceforge.net/DTD/sodipodi-0.dtd"
   xmlns:inkscape="http://www.inkscape.org/namespaces/inkscape"
   width="210mm"
   height="297mm"
   viewBox="0 0 744.09448819 1052.3622047"
   id="svg4178"
   version="1.1"
   inkscape:version="0.91 r13725"
   sodipodi:docname="ira.svg">
  <defs
     id="defs4180" />
  <sodipodi:namedview
     id="base"
     pagecolor="#ffffff"
     bordercolor="#666666"
     borderopacity="1.0"
     inkscape:pageopacity="0.0"
     inkscape:pageshadow="2"
     inkscape:zoom="0.70710678"
     inkscape:cx="210.86248"
     inkscape:cy="535.47742"
     inkscape:document-units="px"
     inkscape:current-layer="layer1"
     showgrid="false" />
  <metadata
     id="metadata4183">
    <rdf:RDF>
      <cc:Work
         rdf:about="">
        <dc:format>image/svg+xml</dc:format>
        <dc:type
           rdf:resource="http://purl.org/dc/dcmitype/StillImage" />
        <dc:title></dc:title>
      </cc:Work>
    </rdf:RDF>
  </metadata>
  <g
     inkscape:label="Layer 1"
     inkscape:groupmode="layer"
     id="layer1">
    <g
       id="g5510"
       transform="translate(2.9931053e-4,-2.1496299)">
      <path
         sodipodi:nodetypes="cscc"
         inkscape:connector-curvature="0"
         id="path5045"
         d="m 509.38292,141.38464 c -86.05793,101.27126 -450.608449,6.33578 -308.176,209.98918 80.54986,115.17215 210.6702,-77.17606 326.06689,-45.93829 75.2388,-34.92598 57.29086,-142.46602 -17.89089,-164.05089 z"
         style="fill:#ff4e4e;fill-opacity:1;fill-rule:evenodd;stroke:#1026ab;stroke-width:4;stroke-linecap:butt;stroke-linejoin:miter;stroke-miterlimit:4;stroke-dasharray:none;stroke-opacity:1" />
      <g
         transform="translate(116.11672,31)"
         id="text5080"
         style="font-style:normal;font-variant:normal;font-weight:normal;font-stretch:normal;font-size:106.93374634px;line-height:125%;font-family:'Tempus Sans ITC';-inkscape-font-specification:'Tempus Sans ITC, Normal';text-align:start;letter-spacing:0px;word-spacing:0px;writing-mode:lr-tb;text-anchor:start;fill:#1026ab;fill-opacity:1;stroke:none;stroke-width:1px;stroke-linecap:butt;stroke-linejoin:miter;stroke-opacity:1">
        <path
           inkscape:connector-curvature="0"
           id="path5103"
           style="letter-spacing:-10px"
           d="m 128.38456,221.7492 q 0.83542,0.62657 2.71511,1.5142 1.8797,0.88763 1.8797,2.14076 0,1.14871 -1.35756,2.45405 -1.35756,1.25313 -2.71512,1.25313 -1.51419,0 -3.23725,-1.72305 -1.67084,-1.72306 -1.67084,-1.98413 0,-0.93984 1.40977,-2.2974 1.46199,-1.35756 2.81955,-1.35756 l 0.15664,0 z m 2.34962,66.52031 q 0,0.31328 -2.2452,1.20092 -2.24519,0.93985 -2.81954,0.93985 l -0.31328,0 q -0.52214,0 -1.35756,0.20885 -0.7832,0.20886 -1.09649,0.20886 -0.99206,0 -1.77526,-0.731 -0.78321,-0.67878 -0.78321,-1.09649 0,-1.09648 0.41771,-3.39389 0.41771,-2.34962 1.30534,-3.44611 0.41771,-3.28946 0.41771,-12.27023 l -0.41771,-18.95358 0.10443,-3.28947 q 0,-0.52214 -0.88763,-1.93191 -0.83542,-1.40977 -0.83542,-3.44611 0,-1.20091 0.62656,-1.67084 0.67878,-0.52213 3.0284,-1.51419 l 2.97618,-1.30535 q 0.20886,-0.10443 0.62657,-0.10443 1.30534,0 1.30534,4.07268 0,2.2974 -0.83542,11.95694 -0.7832,9.60733 -0.7832,15.61191 0,3.3939 0.15664,6.42229 0.20885,2.97619 0.41771,4.5426 0.20885,1.56641 0.93984,2.87175 1.46199,2.71512 1.46199,4.9081 0.20885,0.10442 0.3655,0.20885 z" />
        <path
           sodipodi:nodetypes="scsccccscsccsccscscccccsscccccscccccscccscssccscsssccccsccccccssscsssscscccssccsscsccsscsccs"
           inkscape:connector-curvature="0"
           id="path5105"
           d="m 143.23828,237.25586 c -0.93985,0 -2.05386,0.34873 -3.3418,1.04492 -1.25312,0.69618 -1.8789,1.70654 -1.8789,3.0293 0,0.10442 0.0518,0.53889 0.15625,1.30469 1.04427,7.27511 1.5664,15.68103 1.5664,25.21875 l -0.31445,12.27148 c 0,0.93985 -0.29496,2.31493 -0.88672,4.125 -0.55694,1.81008 -0.83594,3.1832 -0.83594,4.12305 l 0,0.20898 c 0.97466,0.34809 2.1066,0.52344 3.39454,0.52344 1.00946,0 1.95008,-0.0359 2.82031,-0.10547 l 1.04297,-1.04297 c 1.28794,0 1.93164,-0.78319 1.93164,-2.34961 l 0,-0.4707 c -0.83542,-1.14871 -1.44327,-2.81875 -1.82617,-5.01172 -0.3481,-2.19298 -0.52344,-3.72548 -0.52344,-4.5957 0,-0.41772 0.20924,-0.8362 0.62695,-1.25391 0.0696,-0.27847 0.10547,-0.64318 0.10547,-1.0957 0,-0.41772 -0.0538,-1.00959 -0.1582,-1.77539 -0.10443,-0.80061 0.17456,-2.05412 0.83593,-3.75977 l 0,-1.72265 c 0.93986,-1.32275 1.49784,-2.57626 1.67188,-3.75977 0.38291,-1.07909 1.23585,-2.53989 2.55859,-4.38477 1.82275,-1.8797 3.43092,-3.28633 4.81055,-4.10351 11.56764,-6.85171 14.16662,-5.96719 21.86133,-5.28516 8.52683,0.75579 10.46575,7.95211 10.58008,13.55469 0,1.87969 -0.24315,3.08137 -0.73047,3.60352 -0.45252,0.52213 -1.02647,0.90477 -1.72266,1.14843 -0.69618,0.20886 -1.67069,0.4181 -2.92383,0.62696 -4.69923,0.80061 -9.76508,3.11435 -15.19531,6.94335 -5.39542,3.82901 -8.0918,7.48393 -8.0918,10.96485 l 0,0.41797 -0.10546,1.30468 c 0,1.74046 0.15742,2.8724 0.4707,3.39454 0.34809,0.52213 1.07946,1.32325 2.19336,2.40234 1.11389,1.04427 2.48897,1.84344 4.125,2.40039 1.63603,0.52214 3.47946,0.7832 5.5332,0.7832 1.87969,0 3.82872,-0.34678 5.84766,-1.04297 4.14228,-1.60121 6.42408,-2.3844 6.84179,-2.3496 0.10443,-0.45252 0.3655,-0.81919 0.78321,-1.09766 l 0.41601,0 c 0.41772,0 0.8023,-0.0697 1.15039,-0.20898 0.3829,-0.13925 0.60812,-0.20704 0.67774,-0.20704 0.4177,0 0.62695,0.99049 0.62695,2.97461 0,1.81008 -0.1056,2.85434 -0.31445,3.13282 -0.17405,0.27847 -0.45109,0.66111 -0.83399,1.14843 -0.80061,1.56642 -1.20117,3.20255 -1.20117,4.90821 0,0.7658 0.1395,1.63667 0.41797,2.61132 l 0.3125,0 c 0.41771,0 0.8701,0.12157 1.35742,0.36524 0.48733,0.24367 0.81814,0.36523 0.99219,0.36523 1.21832,0 3.08163,-1.25155 5.58789,-3.75781 l -0.10547,-2.24609 0.10547,-2.5586 -0.57422,-2.76758 c -0.4177,-1.98412 -0.62695,-3.62026 -0.62695,-4.9082 0,-0.90504 0.0339,-1.54874 0.10351,-1.93164 0.31329,-0.27847 0.47071,-0.60929 0.47071,-0.99219 l -0.20899,-7.04882 c 0,-3.23726 0.0518,-5.67452 0.15625,-7.31055 0.10444,-1.67084 0.24393,-2.69718 0.41797,-3.08008 0.17405,-0.3829 0.48694,-0.81736 0.93945,-1.30469 0.48733,-0.48732 0.73047,-0.86996 0.73047,-1.14843 l 0,-0.10547 c 0,-0.41772 -0.34678,-0.7306 -1.04297,-0.93946 -0.69618,-0.20885 -1.18441,-0.53966 -1.46289,-0.99218 l 0,-0.73047 c 0,-6.71817 -0.959,-12.1454 -3.86328,-15.50782 -3.01782,-3.49388 -6.03435,-5.23489 -10.86133,-5.42968 -10.98792,-0.44341 -12.80449,0.4572 -21.38643,4.91768 -2.42671,1.26129 -9.02658,6.84116 -10.48857,10.07841 -0.93984,-0.20886 -1.41015,-0.57552 -1.41015,-1.09765 l 0,-0.93946 -0.10352,-6.42187 c 0,-2.78474 0.29497,-5.08251 0.88672,-6.89258 0.62657,-1.81008 0.94141,-2.97591 0.94141,-3.49805 l 0,-0.62695 c 0,-0.10443 -0.1056,-0.3316 -0.31446,-0.67969 l -0.36523,-0.73047 c -0.73099,-0.41771 -1.51419,-0.62695 -2.34961,-0.62695 z m 39.49805,33.66797 c 2.12336,0 3.53429,0.83502 4.23047,2.50586 0.73099,1.67084 1.0957,3.22126 1.0957,4.64843 0,2.33222 -1.09609,4.97677 -3.28906,7.93555 l 0,0.93945 c -1.84489,1.81009 -3.84574,3.04566 -6.00391,3.70704 -2.15817,0.66137 -3.62092,0.99218 -4.38672,0.99218 -2.92396,0 -5.50073,-0.78319 -7.72851,-2.34961 -2.19298,-1.60122 -3.28907,-3.56817 -3.28907,-5.90039 0,-3.30687 2.68041,-6.43965 8.04102,-9.39843 l 1.30469,0 c 2.57588,-2.05374 5.91791,-3.08008 10.02539,-3.08008 z"
           style="letter-spacing:-10px" />
      </g>
    </g>
    <rect
       style="opacity:1;fill:#1026ab;fill-opacity:1;fill-rule:evenodd;stroke:#1026ab;stroke-width:3.52993608;stroke-linecap:round;stroke-linejoin:round;stroke-miterlimit:4;stroke-dasharray:none;stroke-opacity:1"
       id="rect5508"
       width="274.82748"
       height="3.2981904"
       x="234.6335"
       y="524.53198" />
  </g>
</svg>
