<?xml version="1.0" encoding="UTF-8" standalone="no"?>
<!-- Created with Inkscape (http://www.inkscape.org/) -->

<svg
   xmlns:dc="http://purl.org/dc/elements/1.1/"
   xmlns:cc="http://creativecommons.org/ns#"
   xmlns:rdf="http://www.w3.org/1999/02/22-rdf-syntax-ns#"
   xmlns:svg="http://www.w3.org/2000/svg"
   xmlns="http://www.w3.org/2000/svg"
   xmlns:sodipodi="http://sodipodi.sourceforge.net/DTD/sodipodi-0.dtd"
   xmlns:inkscape="http://www.inkscape.org/namespaces/inkscape"
   width="744.09448"
   height="1052.3622"
   viewBox="0 0 744.09449 1052.3622"
   id="svg2"
   version="1.1"
   inkscape:version="0.91 r13725"
   sodipodi:docname="winding.svg">
  <defs
     id="defs4">
    <clipPath
       clipPathUnits="userSpaceOnUse"
       id="clipPath4149">
      <rect
         style="opacity:1;fill:none;fill-opacity:1;fill-rule:evenodd;stroke:#1026ab;stroke-width:4;stroke-linecap:round;stroke-linejoin:round;stroke-miterlimit:4;stroke-dasharray:none;stroke-opacity:1"
         id="rect4151"
         width="602.0509"
         height="216.17264"
         x="76.771591"
         y="177.5701" />
    </clipPath>
  </defs>
  <sodipodi:namedview
     id="base"
     pagecolor="#ffffff"
     bordercolor="#666666"
     borderopacity="1.0"
     inkscape:pageopacity="0.0"
     inkscape:pageshadow="2"
     inkscape:zoom="0.5"
     inkscape:cx="435.02267"
     inkscape:cy="451.76301"
     inkscape:document-units="px"
     inkscape:current-layer="layer1"
     showgrid="false"
     units="px" />
  <metadata
     id="metadata7">
    <rdf:RDF>
      <cc:Work
         rdf:about="">
        <dc:format>image/svg+xml</dc:format>
        <dc:type
           rdf:resource="http://purl.org/dc/dcmitype/StillImage" />
        <dc:title></dc:title>
      </cc:Work>
    </rdf:RDF>
  </metadata>
  <g
     inkscape:label="Layer 1"
     inkscape:groupmode="layer"
     id="layer1">
    <path
       id="path4217"
       style="fill:#ee4030;fill-opacity:1;stroke:none;stroke-width:1.11661386;stroke-opacity:1"
       d="m 607.53106,897.27361 70.80172,-22.55716 c 22.68605,-7.2277 49.84601,-1.98297 73.44837,3.24813 L 798,1101.8622 l -845,0 43.4181016,-132.93457 C 6.3872007,948.94337 28.769992,937.45239 54.425102,932.4063 89.489486,920.91312 126.92144,916.63749 164.3864,914.08116 c 22.90696,-3.1065 48.21889,-1.76668 65.45524,-7.91654 45.26814,-18.90344 90.19127,-44.25896 143.40376,-43.74382 80.15447,-2.07581 159.79361,11.84661 234.28566,34.85281" />
    <path
       id="path4219"
       style="fill:#8f1c64;fill-opacity:1;stroke:none;stroke-width:1.11661386;stroke-opacity:1"
       d="m 607.53108,142.16263 70.80173,-22.55717 c 22.68605,-7.22769 49.846,-1.98298 73.44836,3.24814 l -2e-5,251.70366 c -23.60236,-5.23112 -50.76232,-10.47584 -73.44837,-3.24813 l -70.80172,22.55716 m 2e-5,-251.70366 C 533.03903,119.15642 453.3999,105.23399 373.24542,107.30979 c -53.21247,-0.51514 -98.1356,24.84042 -143.40376,43.74383 -17.23635,6.14988 -42.54828,4.81006 -65.45524,7.91656 -37.46496,2.55633 -74.89691,6.83194 -109.961294,18.32513 -25.655116,5.0461 -48.037907,16.53708 -58.0070057,36.52133 l -1.87e-5,251.70367 C 6.3872007,445.53605 28.769992,434.04507 54.425102,428.99897 89.489486,417.50579 126.92144,413.23016 164.3864,410.67384 c 22.90696,-3.10651 48.21889,-1.76668 65.45524,-7.91655 45.26814,-18.90342 90.19127,-44.25895 143.40376,-43.74381 80.15447,-2.07581 159.79361,11.84659 234.28566,34.85281"
       inkscape:connector-curvature="0" />
    <path
       id="path4269"
       style="fill:#23364a;fill-opacity:1;stroke:none;stroke-width:1.11661386;stroke-opacity:1"
       d="m 607.53108,142.16263 70.80173,-22.55717 c 22.68605,-7.22769 49.846,-1.98298 73.44836,3.24814 l 86.34483,-172.991417 -888.126,0 46.4181203,263.954457 C 6.387219,193.83239 28.77001,182.34141 54.425126,177.29531 89.48951,165.80212 126.92146,161.52651 164.38642,158.97018 c 22.90696,-3.1065 48.21889,-1.76668 65.45524,-7.91656 45.26816,-18.90341 90.19129,-44.25897 143.40376,-43.74383 80.15448,-2.0758 159.79361,11.84663 234.28566,34.85284"
       inkscape:connector-curvature="0" />
    <path
       id="path4273"
       style="fill:#ca2c71;fill-opacity:1;stroke:none;stroke-width:1.11661386;stroke-opacity:1"
       d="m 607.53106,645.56997 70.80172,-22.55717 c 22.68605,-7.22769 49.84601,-1.98296 73.44837,3.24815 l 0,-251.70369 c -23.60236,-5.23112 -50.76232,-10.47584 -73.44837,-3.24813 l -70.80172,22.55716 m 0,251.70368 C 533.03901,622.56376 453.39987,608.64136 373.2454,610.71715 c -53.21249,-0.51514 -98.13562,24.8404 -143.40376,43.74382 -17.23635,6.14988 -42.54828,4.81005 -65.45524,7.91657 -37.46496,2.55632 -74.896914,6.83194 -109.961298,18.32512 -25.65511,5.04608 -48.0379013,16.53707 -58.0070004,36.52132 l 0,-251.70367 C 6.3872007,445.53605 28.769992,434.04507 54.425102,428.99897 89.489486,417.50579 126.92144,413.23016 164.3864,410.67384 c 22.90696,-3.10651 48.21889,-1.76668 65.45524,-7.91655 45.26814,-18.90342 90.19127,-44.25895 143.40376,-43.74381 80.15447,-2.07581 159.79361,11.84659 234.28566,34.85281"
       inkscape:connector-curvature="0" />
    <path
       id="path4275"
       style="fill:#dc3651;fill-opacity:1;stroke:none;stroke-width:1.11661386;stroke-opacity:1"
       d="M 607.53106,897.27361 C 533.03901,874.26741 453.39987,860.34499 373.2454,862.4208 c -53.21249,-0.51514 -98.13562,24.84038 -143.40376,43.74382 -17.23635,6.14986 -42.54828,4.81004 -65.45524,7.91654 -37.46496,2.55633 -74.896914,6.83196 -109.961298,18.32514 -25.65511,5.04609 -48.0379013,16.53707 -58.0070004,36.52133 l 0,-251.70365 C 6.3872007,697.23973 28.769992,685.74874 54.425102,680.70266 89.489486,669.20948 126.92144,664.93386 164.3864,662.37754 c 22.90696,-3.10652 48.21889,-1.76669 65.45524,-7.91657 45.26814,-18.90342 90.19127,-44.25896 143.40376,-43.74382 80.15447,-2.07579 159.79361,11.84661 234.28566,34.85282 m 0,0 70.80172,-22.55717 c 22.68605,-7.22769 49.84601,-1.98296 73.44837,3.24815 l 0,251.70363 c -23.60236,-5.2311 -50.76232,-10.47583 -73.44837,-3.24813 l -70.80172,22.55716"
       inkscape:connector-curvature="0" />
    <path
       style="fill:none;fill-rule:evenodd;stroke:#ffffff;stroke-width:50;stroke-linecap:round;stroke-linejoin:miter;stroke-miterlimit:4;stroke-dasharray:none;stroke-opacity:1"
       d="M 105.2579,-5.9746161 C 30.621964,238.56926 209.15827,311.33628 321.34731,240.68568 c 87.77498,-54.49317 208.83014,-71.58414 294.18408,-2.67645 96.70035,64.1379 128.04163,229.53298 23.02109,300.82943 -95.25062,57.63551 -191.65815,-26.96252 -285.06393,-44.09814 -98.87845,-26.85461 -220.33144,33.85106 -228.47414,143.20093 -19.51302,102.45275 70.78696,205.56762 176.04754,189.64942 103.11066,-7.11193 204.29142,-85.28849 308.02199,-38.57801 88.47146,59.10979 101.63406,192.79991 58.94325,283.12964 l -9.40773,14.5649"
       id="path4221"
       inkscape:connector-curvature="0"
       sodipodi:nodetypes="cccccccccc" />
    <rect
       style="opacity:1;fill:none;fill-opacity:1;fill-rule:evenodd;stroke:#ffffff;stroke-width:0.99361891;stroke-linecap:round;stroke-linejoin:miter;stroke-miterlimit:4;stroke-dasharray:none;stroke-opacity:1"
       id="rect4283"
       width="743.10089"
       height="1051.3685"
       x="0.49680945"
       y="0.49676305" />
  </g>
</svg>
