<?xml version="1.0" encoding="UTF-8" standalone="no"?>
<!-- Created with Inkscape (http://www.inkscape.org/) -->

<svg
   xmlns:dc="http://purl.org/dc/elements/1.1/"
   xmlns:cc="http://creativecommons.org/ns#"
   xmlns:rdf="http://www.w3.org/1999/02/22-rdf-syntax-ns#"
   xmlns:svg="http://www.w3.org/2000/svg"
   xmlns="http://www.w3.org/2000/svg"
   xmlns:sodipodi="http://sodipodi.sourceforge.net/DTD/sodipodi-0.dtd"
   xmlns:inkscape="http://www.inkscape.org/namespaces/inkscape"
   width="744.09448"
   height="1052.3622"
   viewBox="0 0 744.09449 1052.3622"
   id="svg2"
   version="1.1"
   inkscape:version="0.91 r13725"
   sodipodi:docname="winding.svg">
  <defs
     id="defs4">
    <clipPath
       clipPathUnits="userSpaceOnUse"
       id="clipPath4149">
      <rect
         style="opacity:1;fill:none;fill-opacity:1;fill-rule:evenodd;stroke:#1026ab;stroke-width:4;stroke-linecap:round;stroke-linejoin:round;stroke-miterlimit:4;stroke-dasharray:none;stroke-opacity:1"
         id="rect4151"
         width="602.0509"
         height="216.17264"
         x="76.771591"
         y="177.5701" />
    </clipPath>
    <filter
       style="color-interpolation-filters:sRGB;"
       inkscape:label="Drop Shadow"
       id="filter4614">
      <feFlood
         flood-opacity="0.498039"
         flood-color="rgb(0,0,0)"
         result="flood"
         id="feFlood4616" />
      <feComposite
         in="flood"
         in2="SourceGraphic"
         operator="in"
         result="composite1"
         id="feComposite4618" />
      <feGaussianBlur
         in="composite1"
         stdDeviation="2"
         result="blur"
         id="feGaussianBlur4620" />
      <feOffset
         dx="0"
         dy="2"
         result="offset"
         id="feOffset4622" />
      <feComposite
         in="SourceGraphic"
         in2="offset"
         operator="over"
         result="composite2"
         id="feComposite4624" />
    </filter>
    <clipPath
       clipPathUnits="userSpaceOnUse"
       id="clipPath4635">
      <rect
         style="opacity:1;fill:none;fill-opacity:0.78431373;fill-rule:evenodd;stroke:#ffffff;stroke-width:0.98723197;stroke-linecap:round;stroke-linejoin:miter;stroke-miterlimit:4;stroke-dasharray:none;stroke-opacity:1"
         id="rect4637"
         width="743.10724"
         height="1051.375"
         x="0.49361598"
         y="0.49360079" />
    </clipPath>
    <clipPath
       clipPathUnits="userSpaceOnUse"
       id="clipPath4639">
      <rect
         style="opacity:1;fill:none;fill-opacity:0.78431373;fill-rule:evenodd;stroke:#ffffff;stroke-width:0.98723197;stroke-linecap:round;stroke-linejoin:miter;stroke-miterlimit:4;stroke-dasharray:none;stroke-opacity:1"
         id="rect4641"
         width="743.10724"
         height="1051.375"
         x="0.49361598"
         y="16.493601" />
    </clipPath>
  </defs>
  <sodipodi:namedview
     id="base"
     pagecolor="#ffffff"
     bordercolor="#666666"
     borderopacity="1.0"
     inkscape:pageopacity="0.0"
     inkscape:pageshadow="2"
     inkscape:zoom="0.5"
     inkscape:cx="431.52388"
     inkscape:cy="539.46368"
     inkscape:document-units="px"
     inkscape:current-layer="layer1"
     showgrid="false"
     units="px" />
  <metadata
     id="metadata7">
    <rdf:RDF>
      <cc:Work
         rdf:about="">
        <dc:format>image/svg+xml</dc:format>
        <dc:type
           rdf:resource="http://purl.org/dc/dcmitype/StillImage" />
        <dc:title></dc:title>
      </cc:Work>
    </rdf:RDF>
  </metadata>
  <g
     inkscape:label="Layer 1"
     inkscape:groupmode="layer"
     id="layer1">
    <g
       id="g4626"
       transform="translate(0,-16)"
       clip-path="url(#clipPath4639)">
      <path
         id="path4397"
         style="fill:#ee4030;fill-opacity:0.78431373;stroke:none;stroke-width:1.11661386;stroke-opacity:1"
         d="m 607.53106,949.27361 70.80172,-22.55716 c 22.68605,-7.2277 49.84601,-1.98297 73.44837,3.24813 L 798,1153.8622 l -845,0 43.4181016,-132.9346 C 6.3872007,1000.9434 28.769992,989.45239 54.425102,984.4063 89.489486,972.91312 126.92144,968.63749 164.3864,966.08116 c 22.90696,-3.1065 48.21889,-1.76668 65.45524,-7.91654 45.26814,-18.90344 90.19127,-44.25896 143.40376,-43.74382 80.15447,-2.07581 159.79361,11.84661 234.28566,34.85281"
         inkscape:connector-curvature="0" />
      <path
         id="path4399"
         style="fill:#8f1c64;fill-opacity:0.78431373;stroke:none;stroke-width:1.11661386;stroke-opacity:1"
         d="m 607.53108,194.16263 70.80173,-22.55717 c 22.68605,-7.22769 49.846,-1.98298 73.44836,3.24814 l -2e-5,251.70366 c -23.60236,-5.23112 -50.76232,-10.47584 -73.44837,-3.24813 l -70.80172,22.55716 m 2e-5,-251.70366 C 533.03903,171.15642 453.3999,157.23399 373.24542,159.30979 c -53.21247,-0.51514 -98.1356,24.84042 -143.40376,43.74383 -17.23635,6.14988 -42.54828,4.81006 -65.45524,7.91656 -37.46496,2.55633 -74.89691,6.83194 -109.961294,18.32513 -25.655116,5.0461 -48.037907,16.53708 -58.0070057,36.52133 l -1.87e-5,251.70367 C 6.3872007,497.53605 28.769992,486.04507 54.425102,480.99897 89.489486,469.50579 126.92144,465.23016 164.3864,462.67384 c 22.90696,-3.10651 48.21889,-1.76668 65.45524,-7.91655 45.26814,-18.90342 90.19127,-44.25895 143.40376,-43.74381 80.15447,-2.07581 159.79361,11.84659 234.28566,34.85281"
         inkscape:connector-curvature="0" />
      <path
         id="path4401"
         style="fill:#23364a;fill-opacity:0.78431373;stroke:none;stroke-width:1.11661386;stroke-opacity:1"
         d="m 607.53108,194.16263 70.80173,-22.55717 c 22.68605,-7.22769 49.846,-1.98298 73.44836,3.24814 L 838.126,1.862183 -50,1.862183 -3.5818797,265.81664 C 6.387219,245.83239 28.77001,234.34141 54.425126,229.29531 89.48951,217.80212 126.92146,213.52651 164.38642,210.97018 c 22.90696,-3.1065 48.21889,-1.76668 65.45524,-7.91656 45.26816,-18.90341 90.19129,-44.25897 143.40376,-43.74383 80.15448,-2.0758 159.79361,11.84663 234.28566,34.85284"
         inkscape:connector-curvature="0" />
      <path
         id="path4403"
         style="fill:#ca2c71;fill-opacity:0.78431373;stroke:none;stroke-width:1.11661386;stroke-opacity:1"
         d="m 607.53106,697.56997 70.80172,-22.55717 c 22.68605,-7.22769 49.84601,-1.98296 73.44837,3.24815 l 0,-251.70369 c -23.60236,-5.23112 -50.76232,-10.47584 -73.44837,-3.24813 l -70.80172,22.55716 m 0,251.70368 C 533.03901,674.56376 453.39987,660.64136 373.2454,662.71715 c -53.21249,-0.51514 -98.13562,24.8404 -143.40376,43.74382 -17.23635,6.14988 -42.54828,4.81005 -65.45524,7.91657 -37.46496,2.55632 -74.896914,6.83194 -109.961298,18.32512 -25.65511,5.04608 -48.0379013,16.53707 -58.0070004,36.52132 l 0,-251.70367 C 6.3872007,497.53605 28.769992,486.04507 54.425102,480.99897 89.489486,469.50579 126.92144,465.23016 164.3864,462.67384 c 22.90696,-3.10651 48.21889,-1.76668 65.45524,-7.91655 45.26814,-18.90342 90.19127,-44.25895 143.40376,-43.74381 80.15447,-2.07581 159.79361,11.84659 234.28566,34.85281"
         inkscape:connector-curvature="0" />
      <path
         id="path4405"
         style="fill:#dc3651;fill-opacity:0.78431373;stroke:none;stroke-width:1.11661386;stroke-opacity:1"
         d="M 607.53106,949.27361 C 533.03901,926.26741 453.39987,912.34499 373.2454,914.4208 c -53.21249,-0.51514 -98.13562,24.84038 -143.40376,43.74382 -17.23635,6.14986 -42.54828,4.81004 -65.45524,7.91654 -37.46496,2.55633 -74.896914,6.83196 -109.961298,18.32514 -25.65511,5.04609 -48.0379013,16.5371 -58.0070004,36.5213 l 0,-251.70362 C 6.3872007,749.23973 28.769992,737.74874 54.425102,732.70266 89.489486,721.20948 126.92144,716.93386 164.3864,714.37754 c 22.90696,-3.10652 48.21889,-1.76669 65.45524,-7.91657 45.26814,-18.90342 90.19127,-44.25896 143.40376,-43.74382 80.15447,-2.07579 159.79361,11.84661 234.28566,34.85282 m 0,0 70.80172,-22.55717 c 22.68605,-7.22769 49.84601,-1.98296 73.44837,3.24815 l 0,251.70363 c -23.60236,-5.2311 -50.76232,-10.47583 -73.44837,-3.24813 l -70.80172,22.55716"
         inkscape:connector-curvature="0" />
    </g>
    <g
       id="g4451"
       style="filter:url(#filter4614)"
       clip-path="url(#clipPath4635)">
      <path
         id="path4217"
         d="M 388.26758 862.2168 C 383.26308 862.22324 378.25575 862.29018 373.24609 862.41992 C 320.0336 861.90478 275.10994 887.26062 229.8418 906.16406 C 212.60545 912.31392 187.29368 910.97553 164.38672 914.08203 C 126.92176 916.63836 89.490165 920.91307 54.425781 932.40625 C 28.770671 937.45234 6.3870679 948.94347 -3.5820312 968.92773 L -47 1101.8613 L 638.33789 1101.8613 A 25.0025 25.0025 0 0 1 637.61914 1073.1426 L 645.90625 1060.3125 C 664.39652 1020.5128 671.14178 969.57481 663.10742 923.13086 C 660.69749 909.19983 657.02031 895.75924 652.07031 883.08398 L 607.53125 897.27344 C 537.69495 875.70513 463.33504 862.1202 388.26758 862.2168 z M 705.31836 871.18945 C 703.8666 871.16785 702.42071 871.17716 700.98047 871.21094 C 706.04587 885.31381 709.8274 899.88257 712.375 914.60938 C 722.29198 971.93609 714.43633 1032.4542 690.63086 1082.8242 L 689.92383 1084.3184 L 679.61914 1100.2715 A 25.0025 25.0025 0 0 1 678.5293 1101.8613 L 798 1101.8613 L 751.78125 877.96484 C 737.02977 874.69541 720.88839 871.42118 705.31836 871.18945 z "
         style="fill:#ee4030;fill-opacity:1;stroke:none;stroke-width:1.11661386;stroke-opacity:1" />
      <path
         id="path4219"
         d="M 388.26758 107.10547 C 383.26308 107.11191 378.25575 107.18081 373.24609 107.31055 C 320.03362 106.79541 275.10996 132.14932 229.8418 151.05273 C 212.60545 157.20261 187.29368 155.8642 164.38672 158.9707 C 150.2024 159.93854 136.02277 161.15496 121.97461 162.91406 C 130.38549 186.23438 143.58021 203.66178 158.97266 216.12109 C 199.0504 248.56177 260.26598 249.60751 308.02539 219.53125 L 308.09375 219.48828 L 308.16016 219.44531 C 402.45375 160.9052 534.63344 141.24457 630.49023 217.98438 C 681.61611 252.41489 715.10388 309.42155 725.57227 369.53711 C 734.51718 370.83955 743.37597 372.69373 751.78125 374.55664 L 751.78125 122.85352 C 728.17889 117.6224 701.01808 112.37778 678.33203 119.60547 L 607.53125 142.16211 C 537.69495 120.59379 463.33505 107.00888 388.26758 107.10547 z M 73.041016 171.90625 C 66.772745 173.50485 60.56157 175.28377 54.425781 177.29492 C 28.770665 182.34102 6.3870674 193.83216 -3.5820312 213.81641 L -3.5820312 465.51953 C 6.3870678 445.53527 28.770671 434.04415 54.425781 428.99805 C 89.490165 417.50487 126.92176 413.23015 164.38672 410.67383 C 187.29368 407.56732 212.60545 408.90768 229.8418 402.75781 C 275.10994 383.85439 320.0336 358.49853 373.24609 359.01367 C 453.40056 356.93786 533.0392 370.86097 607.53125 393.86719 L 675.16406 372.31836 C 665.5544 326.80148 638.47232 283.22497 601.71289 258.84375 L 600.73828 258.19727 L 599.82812 257.46094 C 525.03569 197.07972 415.54727 211.62998 334.5332 261.92578 C 270.12134 302.41397 186.05092 302.36698 127.51367 254.98438 C 102.87972 235.04457 83.880493 207.11491 73.041016 171.90625 z "
         style="fill:#8f1c64;fill-opacity:1;stroke:none;stroke-width:1.11661386;stroke-opacity:1" />
      <path
         id="path4269"
         d="M -50 -50.138672 L -3.5820312 213.81641 C 6.3870675 193.83216 28.770665 182.34102 54.425781 177.29492 C 60.56157 175.28377 66.772745 173.50485 73.041016 171.90625 C 58.104589 123.38992 58.664371 61.050063 81.347656 -13.271484 A 25.0025 25.0025 0 0 1 104.89062 -31.310547 A 25.0025 25.0025 0 0 1 129.16992 1.3222656 C 107.30962 72.947306 108.48585 125.5146 121.97461 162.91406 C 136.02277 161.15496 150.2024 159.93854 164.38672 158.9707 C 187.29368 155.8642 212.60545 157.20261 229.8418 151.05273 C 275.10996 132.14932 320.03362 106.79541 373.24609 107.31055 C 453.40057 105.23475 533.0392 119.1559 607.53125 142.16211 L 678.33203 119.60547 C 701.01808 112.37778 728.17889 117.6224 751.78125 122.85352 L 838.12695 -50.138672 L -50 -50.138672 z "
         style="fill:#23364a;fill-opacity:1;stroke:none;stroke-width:1.11661386;stroke-opacity:1" />
      <path
         id="path4273"
         d="M 388.26758 358.81055 C 383.26308 358.81699 378.25575 358.88393 373.24609 359.01367 C 320.0336 358.49853 275.10994 383.85439 229.8418 402.75781 C 212.60545 408.90768 187.29368 407.56732 164.38672 410.67383 C 126.92176 413.23015 89.490165 417.50487 54.425781 428.99805 C 28.770671 434.04415 6.3870678 445.53527 -3.5820312 465.51953 L -3.5820312 717.22461 C 6.3870678 697.24036 28.770671 685.7492 54.425781 680.70312 C 68.42242 676.1154 82.799708 672.69208 97.402344 670.05469 C 97.176952 658.33719 98.075605 646.47205 100.24609 634.58789 C 105.4668 571.795 143.48401 522.30705 192.63867 493.66406 C 242.04162 464.87639 303.14036 455.3296 359.53711 470.49219 C 411.31828 480.32983 458.88207 506.1486 503.32031 521.14062 C 547.97888 536.20698 585.44294 541.45081 625.01758 517.78125 C 668.73214 487.80126 683.79952 439.61232 677.85547 388.63477 C 677.22028 383.18726 676.30868 377.73991 675.16406 372.31836 L 607.53125 393.86719 C 537.69495 372.29886 463.33504 358.71394 388.26758 358.81055 z M 725.57227 369.53711 C 726.34231 373.95913 727.0009 378.39581 727.51953 382.84375 C 735.14221 448.2176 713.49287 518.18018 652.59375 559.52344 L 652.05469 559.88867 L 651.49414 560.22852 C 596.03736 593.78504 537.82403 585.54997 487.33789 568.51758 C 436.85175 551.48518 389.99899 526.85579 348.97656 519.33008 L 347.94727 519.14062 L 346.93555 518.86719 C 304.59299 507.36728 255.7448 514.76164 217.8125 536.86523 C 179.8802 558.96883 153.35857 593.96148 149.94531 639.79883 L 149.83984 641.21875 L 149.57227 642.61914 C 148.23457 649.64271 147.53525 656.68221 147.40625 663.68164 C 153.06078 663.19757 158.72261 662.76343 164.38672 662.37695 C 187.29368 659.27043 212.60545 660.61082 229.8418 654.46094 C 275.10994 635.55752 320.0336 610.20166 373.24609 610.7168 C 453.40056 608.64101 533.0392 622.5641 607.53125 645.57031 L 678.33203 623.01367 C 701.01808 615.78598 728.17889 621.03061 751.78125 626.26172 L 751.78125 374.55664 C 743.37597 372.69373 734.51718 370.83955 725.57227 369.53711 z "
         style="fill:#ca2c71;fill-opacity:1;stroke:none;stroke-width:1.11661386;stroke-opacity:1" />
      <path
         id="path4275"
         d="M 388.26758 610.51367 C 383.26308 610.52011 378.25575 610.58706 373.24609 610.7168 C 320.0336 610.20166 275.10994 635.55752 229.8418 654.46094 C 212.60545 660.61082 187.29368 659.27043 164.38672 662.37695 C 158.72261 662.76343 153.06078 663.19757 147.40625 663.68164 C 145.9649 741.88745 217.11492 815.00089 297.32422 802.87109 L 298.32812 802.7207 L 299.3418 802.65039 C 345.18379 799.4885 394.87437 779.23046 447.98047 764.07812 C 501.08656 748.9258 559.94832 739.46805 619.34961 766.2168 L 621.24414 767.07031 L 622.97266 768.22461 C 660.87016 793.54479 686.32789 830.41585 700.98047 871.21094 C 717.86719 870.81492 735.65433 874.39056 751.78125 877.96484 L 751.78125 626.26172 C 728.17889 621.03061 701.01808 615.78598 678.33203 623.01367 L 607.53125 645.57031 C 537.69495 624.00199 463.33504 610.41709 388.26758 610.51367 z M 97.402344 670.05469 C 82.799708 672.69208 68.42242 676.1154 54.425781 680.70312 C 28.770671 685.7492 6.3870678 697.24036 -3.5820312 717.22461 L -3.5820312 968.92773 C 6.3870678 948.94347 28.770671 937.45234 54.425781 932.40625 C 89.490165 920.91307 126.92176 916.63836 164.38672 914.08203 C 187.29368 910.97553 212.60545 912.31392 229.8418 906.16406 C 275.10994 887.26062 320.0336 861.90478 373.24609 862.41992 C 453.40056 860.34411 533.0392 874.26724 607.53125 897.27344 L 652.07031 883.08398 C 640.6217 853.768 622.32782 828.56708 596.89453 811.01172 C 553.22672 792.08397 510.18154 798.32513 461.69922 812.1582 C 413.00247 826.05246 361.09477 848.06899 304.50195 852.3457 C 194.20857 868.82986 99.431171 775.52778 97.402344 670.05469 z "
         style="fill:#dc3651;fill-opacity:1;stroke:none;stroke-width:1.11661386;stroke-opacity:1" />
    </g>
    <path
       style="color:#000000;font-style:normal;font-variant:normal;font-weight:normal;font-stretch:normal;font-size:medium;line-height:normal;font-family:sans-serif;text-indent:0;text-align:start;text-decoration:none;text-decoration-line:none;text-decoration-style:solid;text-decoration-color:#000000;letter-spacing:normal;word-spacing:normal;text-transform:none;direction:ltr;block-progression:tb;writing-mode:lr-tb;baseline-shift:baseline;text-anchor:start;white-space:normal;clip-rule:nonzero;display:none;overflow:visible;visibility:visible;opacity:1;isolation:auto;mix-blend-mode:normal;color-interpolation:sRGB;color-interpolation-filters:linearRGB;solid-color:#000000;solid-opacity:1;fill:#ffffff;fill-opacity:1;fill-rule:evenodd;stroke:none;stroke-width:50;stroke-linecap:round;stroke-linejoin:miter;stroke-miterlimit:4;stroke-dasharray:none;stroke-dashoffset:0;stroke-opacity:1;color-rendering:auto;image-rendering:auto;shape-rendering:auto;text-rendering:auto;enable-background:accumulate"
       d="M 104.89062,-31.310547 A 25.0025,25.0025 0 0 0 81.347656,-13.271484 C 42.20294,114.98577 68.934983,207.56822 127.51367,254.98438 c 58.57869,47.41615 142.72666,47.42974 207.15625,6.85546 l -0.13672,0.0859 c 81.01407,-50.2958 190.50248,-64.84606 265.29492,-4.46484 l 0.91016,0.73633 0.97461,0.64648 c 41.13787,27.28528 70.17466,78.60874 76.14258,129.79102 5.94405,50.97755 -9.12333,99.16649 -52.83789,129.14648 -39.57464,23.66956 -77.0387,18.42573 -121.69727,3.35937 -44.43824,-14.99202 -92.00203,-40.81079 -143.7832,-50.64843 -56.39675,-15.16259 -117.49549,-5.6158 -166.89844,23.17187 -49.15466,28.64299 -87.17187,78.13094 -92.39258,140.92383 -21.707779,118.8574 81.70947,236.07327 204.25586,217.75781 56.59282,-4.27671 108.50052,-26.29324 157.19727,-40.1875 48.48232,-13.83307 91.5275,-20.07423 135.19531,-1.14648 36.42979,25.14571 58.22913,65.96769 66.21289,112.11914 8.03436,46.44395 1.2891,97.38198 -17.20117,137.18168 l -8.28711,12.8301 a 25.0025,25.0025 0 1 0 42,27.1289 l 10.30469,-15.9531 0.70703,-1.4942 C 714.43633,1032.4541 722.29198,971.9361 712.375,914.60938 702.45802,857.28265 673.97134,802.29799 622.97266,768.22461 l -1.72852,-1.1543 -1.89453,-0.85351 C 559.94832,739.46805 501.08656,748.92579 447.98047,764.07812 394.87437,779.23046 345.18379,799.4885 299.3418,802.65039 l -1.01368,0.0703 -1.0039,0.15039 C 209.93618,816.08649 133.28823,728.11817 149.57227,642.61914 l 0.26757,-1.40039 0.10547,-1.41992 c 3.41326,-45.83735 29.93489,-80.83 67.86719,-102.9336 37.9323,-22.10359 86.78049,-29.49795 129.12305,-17.99804 l 1.01172,0.27343 1.02929,0.18946 c 41.02243,7.52571 87.87519,32.1551 138.36133,49.1875 50.48614,17.03239 108.69947,25.26746 164.15625,-8.28906 l 0.56055,-0.33985 0.53906,-0.36523 c 60.89912,-41.34326 82.54846,-111.30584 74.92578,-176.67969 -7.56927,-64.91588 -42.14268,-127.8962 -97.0293,-164.85937 -95.85679,-76.7398 -228.03648,-57.07918 -322.33007,1.46093 l -0.0664,0.043 -0.0684,0.043 C 260.26595,249.60757 199.0504,248.56177 158.97266,216.12109 118.89492,183.68042 93.678702,117.60888 129.16992,1.3222656 a 25.0025,25.0025 0 0 0 -24.2793,-32.6328126 z"
       id="path4384"
       inkscape:connector-curvature="0" />
    <path
       style="color:#000000;font-style:normal;font-variant:normal;font-weight:normal;font-stretch:normal;font-size:medium;line-height:normal;font-family:sans-serif;text-indent:0;text-align:start;text-decoration:none;text-decoration-line:none;text-decoration-style:solid;text-decoration-color:#000000;letter-spacing:normal;word-spacing:normal;text-transform:none;direction:ltr;block-progression:tb;writing-mode:lr-tb;baseline-shift:baseline;text-anchor:start;white-space:normal;clip-rule:nonzero;display:none;overflow:visible;visibility:visible;opacity:1;isolation:auto;mix-blend-mode:normal;color-interpolation:sRGB;color-interpolation-filters:linearRGB;solid-color:#000000;solid-opacity:1;fill:#ffffff;fill-opacity:1;fill-rule:evenodd;stroke:none;stroke-width:50;stroke-linecap:round;stroke-linejoin:miter;stroke-miterlimit:4;stroke-dasharray:none;stroke-dashoffset:0;stroke-opacity:1;color-rendering:auto;image-rendering:auto;shape-rendering:auto;text-rendering:auto;enable-background:accumulate"
       d="M 104.89062,-31.310547 A 25.0025,25.0025 0 0 0 81.347656,-13.271484 C 42.20294,114.98577 68.934983,207.56822 127.51367,254.98438 c 58.57869,47.41615 142.72666,47.42974 207.15625,6.85546 l -0.13672,0.0859 c 81.01407,-50.2958 190.50248,-64.84606 265.29492,-4.46484 l 0.91016,0.73633 0.97461,0.64648 c 41.13787,27.28528 70.17466,78.60874 76.14258,129.79102 5.94405,50.97755 -9.12333,99.16649 -52.83789,129.14648 -39.57464,23.66956 -77.0387,18.42573 -121.69727,3.35937 -44.43824,-14.99202 -92.00203,-40.81079 -143.7832,-50.64843 -56.39675,-15.16259 -117.49549,-5.6158 -166.89844,23.17187 -49.15466,28.64299 -87.17187,78.13094 -92.39258,140.92383 -21.707779,118.8574 81.70947,236.07327 204.25586,217.75781 56.59282,-4.27671 108.50052,-26.29324 157.19727,-40.1875 48.48232,-13.83307 91.5275,-20.07423 135.19531,-1.14648 36.42979,25.14571 58.22913,65.96769 66.21289,112.11914 8.03436,46.44395 1.2891,97.38198 -17.20117,137.18168 l -8.28711,12.8301 a 25.0025,25.0025 0 1 0 42,27.1289 l 10.30469,-15.9531 0.70703,-1.4942 C 714.43633,1032.4541 722.29198,971.9361 712.375,914.60938 702.45802,857.28265 673.97134,802.29799 622.97266,768.22461 l -1.72852,-1.1543 -1.89453,-0.85351 C 559.94832,739.46805 501.08656,748.92579 447.98047,764.07812 394.87437,779.23046 345.18379,799.4885 299.3418,802.65039 l -1.01368,0.0703 -1.0039,0.15039 C 209.93618,816.08649 133.28823,728.11817 149.57227,642.61914 l 0.26757,-1.40039 0.10547,-1.41992 c 3.41326,-45.83735 29.93489,-80.83 67.86719,-102.9336 37.9323,-22.10359 86.78049,-29.49795 129.12305,-17.99804 l 1.01172,0.27343 1.02929,0.18946 c 41.02243,7.52571 87.87519,32.1551 138.36133,49.1875 50.48614,17.03239 108.69947,25.26746 164.15625,-8.28906 l 0.56055,-0.33985 0.53906,-0.36523 c 60.89912,-41.34326 82.54846,-111.30584 74.92578,-176.67969 -7.56927,-64.91588 -42.14268,-127.8962 -97.0293,-164.85937 -95.85679,-76.7398 -228.03648,-57.07918 -322.33007,1.46093 l -0.0664,0.043 -0.0684,0.043 C 260.26595,249.60757 199.0504,248.56177 158.97266,216.12109 118.89492,183.68042 93.678702,117.60888 129.16992,1.3222656 a 25.0025,25.0025 0 0 0 -24.2793,-32.6328126 z"
       id="path4417"
       inkscape:connector-curvature="0" />
  </g>
</svg>
