<?xml version="1.0" encoding="UTF-8" standalone="no"?>
<!-- Created with Inkscape (http://www.inkscape.org/) -->

<svg
   xmlns:dc="http://purl.org/dc/elements/1.1/"
   xmlns:cc="http://creativecommons.org/ns#"
   xmlns:rdf="http://www.w3.org/1999/02/22-rdf-syntax-ns#"
   xmlns:svg="http://www.w3.org/2000/svg"
   xmlns="http://www.w3.org/2000/svg"
   xmlns:sodipodi="http://sodipodi.sourceforge.net/DTD/sodipodi-0.dtd"
   xmlns:inkscape="http://www.inkscape.org/namespaces/inkscape"
   width="744.09448"
   height="1052.3622"
   viewBox="0 0 744.09449 1052.3622"
   id="svg2"
   version="1.1"
   inkscape:version="0.91 r13725"
   sodipodi:docname="winding.svg">
  <defs
     id="defs4">
    <clipPath
       clipPathUnits="userSpaceOnUse"
       id="clipPath4149">
      <rect
         style="opacity:1;fill:none;fill-opacity:1;fill-rule:evenodd;stroke:#1026ab;stroke-width:4;stroke-linecap:round;stroke-linejoin:round;stroke-miterlimit:4;stroke-dasharray:none;stroke-opacity:1"
         id="rect4151"
         width="602.0509"
         height="216.17264"
         x="76.771591"
         y="177.5701" />
    </clipPath>
    <filter
       style="color-interpolation-filters:sRGB;"
       inkscape:label="Drop Shadow"
       id="filter4614">
      <feFlood
         flood-opacity="0.498039"
         flood-color="rgb(0,0,0)"
         result="flood"
         id="feFlood4616" />
      <feComposite
         in="flood"
         in2="SourceGraphic"
         operator="in"
         result="composite1"
         id="feComposite4618" />
      <feGaussianBlur
         in="composite1"
         stdDeviation="2"
         result="blur"
         id="feGaussianBlur4620" />
      <feOffset
         dx="0"
         dy="2"
         result="offset"
         id="feOffset4622" />
      <feComposite
         in="SourceGraphic"
         in2="offset"
         operator="over"
         result="composite2"
         id="feComposite4624" />
    </filter>
    <clipPath
       clipPathUnits="userSpaceOnUse"
       id="clipPath4635">
      <rect
         style="opacity:1;fill:none;fill-opacity:0.78431373;fill-rule:evenodd;stroke:#ffffff;stroke-width:0.98723197;stroke-linecap:round;stroke-linejoin:miter;stroke-miterlimit:4;stroke-dasharray:none;stroke-opacity:1"
         id="rect4637"
         width="743.10724"
         height="1051.375"
         x="0.49361598"
         y="0.49360079" />
    </clipPath>
    <clipPath
       clipPathUnits="userSpaceOnUse"
       id="clipPath4639">
      <rect
         style="opacity:1;fill:none;fill-opacity:0.78431373;fill-rule:evenodd;stroke:#ffffff;stroke-width:0.98723197;stroke-linecap:round;stroke-linejoin:miter;stroke-miterlimit:4;stroke-dasharray:none;stroke-opacity:1"
         id="rect4641"
         width="743.10724"
         height="1051.375"
         x="0.49361598"
         y="16.493601" />
    </clipPath>
    <clipPath
       clipPathUnits="userSpaceOnUse"
       id="clipPath4855">
      <rect
         style="opacity:1;fill:#f2695d;fill-opacity:0.30769234;fill-rule:evenodd;stroke:#ffffff;stroke-width:1.00123835;stroke-linecap:round;stroke-linejoin:miter;stroke-miterlimit:4;stroke-dasharray:none;stroke-opacity:1"
         id="rect4857"
         width="743.09375"
         height="1051.361"
         x="0.50061935"
         y="0.50060153" />
    </clipPath>
    <clipPath
       clipPathUnits="userSpaceOnUse"
       id="clipPath4859">
      <rect
         style="opacity:1;fill:#f2695d;fill-opacity:0.30769234;fill-rule:evenodd;stroke:#ffffff;stroke-width:1.00123835;stroke-linecap:round;stroke-linejoin:miter;stroke-miterlimit:4;stroke-dasharray:none;stroke-opacity:1"
         id="rect4861"
         width="743.09375"
         height="1051.361"
         x="0.50061935"
         y="0.50060153" />
    </clipPath>
  </defs>
  <sodipodi:namedview
     id="base"
     pagecolor="#ffffff"
     bordercolor="#666666"
     borderopacity="1.0"
     inkscape:pageopacity="0.0"
     inkscape:pageshadow="2"
     inkscape:zoom="0.70710678"
     inkscape:cx="362.5861"
     inkscape:cy="564.65195"
     inkscape:document-units="px"
     inkscape:current-layer="layer1"
     showgrid="false"
     units="px" />
  <metadata
     id="metadata7">
    <rdf:RDF>
      <cc:Work
         rdf:about="">
        <dc:format>image/svg+xml</dc:format>
        <dc:type
           rdf:resource="http://purl.org/dc/dcmitype/StillImage" />
        <dc:title></dc:title>
      </cc:Work>
    </rdf:RDF>
  </metadata>
  <g
     inkscape:label="Layer 1"
     inkscape:groupmode="layer"
     id="layer1">
    <g
       id="g4818"
       clip-path="url(#clipPath4859)">
      <path
         id="path4397"
         style="fill:#f2695d;fill-opacity:1;stroke:none;stroke-width:1.11661386;stroke-opacity:1"
         d="m 607.53106,933.27361 70.80172,-22.55716 c 22.68605,-7.2277 49.84601,-1.98297 73.44837,3.24813 L 798,1137.8622 l -845,0 43.4181016,-132.9346 C 6.3872007,984.9434 28.769992,973.45239 54.425102,968.4063 89.489486,956.91312 126.92144,952.63749 164.3864,950.08116 c 22.90696,-3.1065 48.21889,-1.76668 65.45524,-7.91654 45.26814,-18.90344 90.19127,-44.25896 143.40376,-43.74382 80.15447,-2.07581 159.79361,11.84661 234.28566,34.85281"
         inkscape:connector-curvature="0" />
      <path
         id="path4399"
         style="fill:#a74d85;fill-opacity:1;stroke:none;stroke-width:1.11661386;stroke-opacity:1"
         d="m 607.53108,178.16263 70.80173,-22.55717 c 22.68605,-7.22769 49.846,-1.98298 73.44836,3.24814 l -2e-5,251.70366 c -23.60236,-5.23112 -50.76232,-10.47584 -73.44837,-3.24813 l -70.80172,22.55716 m 2e-5,-251.70366 C 533.03903,155.15642 453.3999,141.23399 373.24542,143.30979 c -53.21247,-0.51514 -98.1356,24.84042 -143.40376,43.74383 -17.23635,6.14988 -42.54828,4.81006 -65.45524,7.91656 -37.46496,2.55633 -74.89691,6.83194 -109.961294,18.32513 -25.655116,5.0461 -48.037907,16.53708 -58.0070057,36.52133 l -1.87e-5,251.70367 C 6.3872007,481.53605 28.769992,470.04507 54.425102,464.99897 89.489486,453.50579 126.92144,449.23016 164.3864,446.67384 c 22.90696,-3.10651 48.21889,-1.76668 65.45524,-7.91655 45.26814,-18.90342 90.19127,-44.25895 143.40376,-43.74381 80.15447,-2.07581 159.79361,11.84659 234.28566,34.85281"
         inkscape:connector-curvature="0" />
      <path
         id="path4401"
         style="fill:#526171;fill-opacity:1;stroke:none;stroke-width:1.11661386;stroke-opacity:1"
         d="m 607.53108,178.16263 70.80173,-22.55717 c 22.68605,-7.22769 49.846,-1.98298 73.44836,3.24814 l 86.34483,-172.991417 -888.126,0 46.4181203,263.954457 C 6.387219,229.83239 28.77001,218.34141 54.425126,213.29531 89.48951,201.80212 126.92146,197.52651 164.38642,194.97018 c 22.90696,-3.1065 48.21889,-1.76668 65.45524,-7.91656 45.26816,-18.90341 90.19129,-44.25897 143.40376,-43.74383 80.15448,-2.0758 159.79361,11.84663 234.28566,34.85284"
         inkscape:connector-curvature="0" />
      <path
         id="path4403"
         style="fill:#d55a90;fill-opacity:1;stroke:none;stroke-width:1.11661386;stroke-opacity:1"
         d="m 607.53106,681.56997 70.80172,-22.55717 c 22.68605,-7.22769 49.84601,-1.98296 73.44837,3.24815 l 0,-251.70369 c -23.60236,-5.23112 -50.76232,-10.47584 -73.44837,-3.24813 l -70.80172,22.55716 m 0,251.70368 C 533.03901,658.56376 453.39987,644.64136 373.2454,646.71715 c -53.21249,-0.51514 -98.13562,24.8404 -143.40376,43.74382 -17.23635,6.14988 -42.54828,4.81005 -65.45524,7.91657 -37.46496,2.55632 -74.896914,6.83194 -109.961298,18.32512 -25.65511,5.04608 -48.0379013,16.53707 -58.0070004,36.52132 l 0,-251.70367 C 6.3872007,481.53605 28.769992,470.04507 54.425102,464.99897 89.489486,453.50579 126.92144,449.23016 164.3864,446.67384 c 22.90696,-3.10651 48.21889,-1.76668 65.45524,-7.91655 45.26814,-18.90342 90.19127,-44.25895 143.40376,-43.74381 80.15447,-2.07581 159.79361,11.84659 234.28566,34.85281"
         inkscape:connector-curvature="0" />
      <path
         id="path4405"
         style="fill:#e46177;fill-opacity:1;stroke:none;stroke-width:1.11661386;stroke-opacity:1"
         d="M 607.53106,933.27361 C 533.03901,910.26741 453.39987,896.34499 373.2454,898.4208 c -53.21249,-0.51514 -98.13562,24.84038 -143.40376,43.74382 -17.23635,6.14986 -42.54828,4.81004 -65.45524,7.91654 -37.46496,2.55633 -74.896914,6.83196 -109.961298,18.32514 -25.65511,5.04609 -48.0379013,16.5371 -58.0070004,36.5213 l 0,-251.70362 C 6.3872007,733.23973 28.769992,721.74874 54.425102,716.70266 89.489486,705.20948 126.92144,700.93386 164.3864,698.37754 c 22.90696,-3.10652 48.21889,-1.76669 65.45524,-7.91657 45.26814,-18.90342 90.19127,-44.25896 143.40376,-43.74382 80.15447,-2.07579 159.79361,11.84661 234.28566,34.85282 m 0,0 70.80172,-22.55717 c 22.68605,-7.22769 49.84601,-1.98296 73.44837,3.24815 l 0,251.70363 c -23.60236,-5.2311 -50.76232,-10.47583 -73.44837,-3.24813 l -70.80172,22.55716"
         inkscape:connector-curvature="0" />
    </g>
    <g
       id="g4451"
       style="filter:url(#filter4614)"
       clip-path="url(#clipPath4855)">
      <path
         id="path4217"
         d="m 388.26758,862.2168 c -5.0045,0.006 -10.01183,0.0734 -15.02149,0.20312 -53.21249,-0.51514 -98.13615,24.8407 -143.40429,43.74414 -17.23635,6.14986 -42.54812,4.81147 -65.45508,7.91797 -37.46496,2.55633 -74.896555,6.83104 -109.960939,18.32422 -25.65511,5.04609 -48.0387131,16.53722 -58.0078122,36.52148 L -47,1101.8613 l 685.33789,0 a 25.0025,25.0025 0 0 1 -0.71875,-28.7187 l 8.28711,-12.8301 c 18.49027,-39.7997 25.23553,-90.73769 17.20117,-137.18164 -2.40993,-13.93103 -6.08711,-27.37162 -11.03711,-40.04688 l -44.53906,14.18946 C 537.69495,875.70513 463.33504,862.1202 388.26758,862.2168 Z m 317.05078,8.97265 c -1.45176,-0.0216 -2.89765,-0.0123 -4.33789,0.0215 5.0654,14.10287 8.84693,28.67163 11.39453,43.39844 9.91698,57.32671 2.06133,117.84481 -21.74414,168.21481 l -0.70703,1.4942 -10.30469,15.9531 a 25.0025,25.0025 0 0 1 -1.08984,1.5898 l 119.4707,0 -46.21875,-223.89645 c -14.75148,-3.26943 -30.89286,-6.54366 -46.46289,-6.77539 z"
         style="fill:#ee4030;fill-opacity:1;stroke:none;stroke-width:1.11661386;stroke-opacity:1"
         inkscape:connector-curvature="0" />
      <path
         id="path4219"
         d="m 388.26758,107.10547 c -5.0045,0.006 -10.01183,0.0753 -15.02149,0.20508 -53.21247,-0.51514 -98.13613,24.83877 -143.40429,43.74218 -17.23635,6.14988 -42.54812,4.81147 -65.45508,7.91797 -14.18432,0.96784 -28.36395,2.18426 -42.41211,3.94336 8.41088,23.32032 21.6056,40.74772 36.99805,53.20703 40.07774,32.44068 101.29332,33.48642 149.05273,3.41016 l 0.0684,-0.043 0.0664,-0.043 c 94.29359,-58.54011 226.47328,-78.20074 322.33007,-1.46093 51.12588,34.43051 84.61365,91.43717 95.08204,151.55273 8.94491,1.30244 17.8037,3.15662 26.20898,5.01953 l 0,-251.70312 c -23.60236,-5.23112 -50.76317,-10.47574 -73.44922,-3.24805 l -70.80078,22.55664 C 537.69495,120.59379 463.33505,107.00888 388.26758,107.10547 Z M 73.041016,171.90625 c -6.268271,1.5986 -12.479446,3.37752 -18.615235,5.38867 -25.655116,5.0461 -48.0387136,16.53724 -58.0078122,36.52149 l 0,251.70312 c 9.969099,-19.98426 32.3527022,-31.47538 58.0078122,-36.52148 35.064384,-11.49318 72.495979,-15.7679 109.960939,-18.32422 22.90696,-3.10651 48.21873,-1.76615 65.45508,-7.91602 45.26814,-18.90342 90.1918,-44.25928 143.40429,-43.74414 80.15447,-2.07581 159.79311,11.8473 234.28516,34.85352 l 67.63281,-21.54883 C 665.5544,326.80148 638.47232,283.22497 601.71289,258.84375 l -0.97461,-0.64648 -0.91016,-0.73633 c -74.79243,-60.38122 -184.28085,-45.83096 -265.29492,4.46484 -64.41186,40.48819 -148.48228,40.4412 -207.01953,-6.9414 -24.63395,-19.93981 -43.633177,-47.86947 -54.472654,-83.07813 z"
         style="fill:#8f1c64;fill-opacity:1;stroke:none;stroke-width:1.11661386;stroke-opacity:1"
         inkscape:connector-curvature="0" />
      <path
         id="path4269"
         d="M -50,-50.138672 -3.5820312,213.81641 C 6.3870675,193.83216 28.770665,182.34102 54.425781,177.29492 60.56157,175.28377 66.772745,173.50485 73.041016,171.90625 58.104589,123.38992 58.664371,61.050063 81.347656,-13.271484 a 25.0025,25.0025 0 0 1 23.542964,-18.039063 25.0025,25.0025 0 0 1 24.2793,32.6328126 C 107.30962,72.947306 108.48585,125.5146 121.97461,162.91406 c 14.04816,-1.7591 28.22779,-2.97552 42.41211,-3.94336 22.90696,-3.1065 48.21873,-1.76809 65.45508,-7.91797 45.26816,-18.90341 90.19182,-44.25732 143.40429,-43.74218 80.15448,-2.0758 159.79311,11.84535 234.28516,34.85156 l 70.80078,-22.55664 c 22.68605,-7.22769 49.84686,-1.98307 73.44922,3.24805 l 86.3457,-172.992192 -888.12695,0 z"
         style="fill:#23364a;fill-opacity:1;stroke:none;stroke-width:1.11661386;stroke-opacity:1"
         inkscape:connector-curvature="0" />
      <path
         id="path4273"
         d="m 388.26758,358.81055 c -5.0045,0.006 -10.01183,0.0734 -15.02149,0.20312 -53.21249,-0.51514 -98.13615,24.84072 -143.40429,43.74414 -17.23635,6.14987 -42.54812,4.80951 -65.45508,7.91602 -37.46496,2.55632 -74.896555,6.83104 -109.960939,18.32422 -25.65511,5.0461 -48.0387132,16.53722 -58.0078122,36.52148 l 0,251.70508 c 9.969099,-19.98425 32.3527022,-31.47541 58.0078122,-36.52149 13.996639,-4.58772 28.373927,-8.01104 42.976563,-10.64843 -0.225392,-11.7175 0.673261,-23.58264 2.843746,-35.4668 5.22071,-62.79289 43.23792,-112.28084 92.39258,-140.92383 49.40295,-28.78767 110.50169,-38.33446 166.89844,-23.17187 51.78117,9.83764 99.34496,35.65641 143.7832,50.64843 44.65857,15.06636 82.12263,20.31019 121.69727,-3.35937 43.71456,-29.97999 58.78194,-78.16893 52.83789,-129.14648 -0.63519,-5.44751 -1.54679,-10.89486 -2.69141,-16.31641 l -67.63281,21.54883 C 537.69495,372.29886 463.33504,358.71394 388.26758,358.81055 Z m 337.30469,10.72656 c 0.77004,4.42202 1.42863,8.8587 1.94726,13.30664 7.62268,65.37385 -14.02666,135.33643 -74.92578,176.67969 l -0.53906,0.36523 -0.56055,0.33985 c -55.45678,33.55652 -113.67011,25.32145 -164.15625,8.28906 -50.48614,-17.0324 -97.3389,-41.66179 -138.36133,-49.1875 l -1.02929,-0.18946 -1.01172,-0.27343 c -42.34256,-11.49991 -91.19075,-4.10555 -129.12305,17.99804 -37.9323,22.1036 -64.45393,57.09625 -67.86719,102.9336 l -0.10547,1.41992 -0.26757,1.40039 c -1.3377,7.02357 -2.03702,14.06307 -2.16602,21.0625 5.65453,-0.48407 11.31636,-0.91821 16.98047,-1.30469 22.90696,-3.10652 48.21873,-1.76613 65.45508,-7.91601 45.26814,-18.90342 90.1918,-44.25928 143.40429,-43.74414 80.15447,-2.07579 159.79311,11.8473 234.28516,34.85351 l 70.80078,-22.55664 c 22.68605,-7.22769 49.84686,-1.98306 73.44922,3.24805 l 0,-251.70508 c -8.40528,-1.86291 -17.26407,-3.71709 -26.20898,-5.01953 z"
         style="fill:#ca2c71;fill-opacity:1;stroke:none;stroke-width:1.11661386;stroke-opacity:1"
         inkscape:connector-curvature="0" />
      <path
         id="path4275"
         d="m 388.26758,610.51367 c -5.0045,0.006 -10.01183,0.0734 -15.02149,0.20313 -53.21249,-0.51514 -98.13615,24.84072 -143.40429,43.74414 -17.23635,6.14988 -42.54812,4.80949 -65.45508,7.91601 -5.66411,0.38648 -11.32594,0.82062 -16.98047,1.30469 -1.44135,78.20581 69.70867,151.31925 149.91797,139.18945 l 1.0039,-0.15039 1.01368,-0.0703 c 45.84199,-3.16189 95.53257,-23.41993 148.63867,-38.57227 53.10609,-15.15232 111.96785,-24.61007 171.36914,2.13868 l 1.89453,0.85351 1.72852,1.1543 c 37.8975,25.32018 63.35523,62.19124 78.00781,102.98633 16.88672,-0.39602 34.67386,3.17962 50.80078,6.7539 l 0,-251.70312 c -23.60236,-5.23111 -50.76317,-10.47574 -73.44922,-3.24805 l -70.80078,22.55664 C 537.69495,624.00199 463.33504,610.41709 388.26758,610.51367 Z M 97.402344,670.05469 c -14.602636,2.63739 -28.979924,6.06071 -42.976563,10.64843 -25.65511,5.04608 -48.0387132,16.53724 -58.0078122,36.52149 l 0,251.70312 c 9.969099,-19.98426 32.3527022,-31.47539 58.0078122,-36.52148 35.064384,-11.49318 72.495979,-15.76789 109.960939,-18.32422 22.90696,-3.1065 48.21873,-1.76811 65.45508,-7.91797 45.26814,-18.90344 90.1918,-44.25928 143.40429,-43.74414 80.15447,-2.07581 159.79311,11.84732 234.28516,34.85352 l 44.53906,-14.18946 C 640.6217,853.768 622.32782,828.56708 596.89453,811.01172 553.22672,792.08397 510.18154,798.32513 461.69922,812.1582 413.00247,826.05246 361.09477,848.06899 304.50195,852.3457 194.20857,868.82986 99.431171,775.52778 97.402344,670.05469 Z"
         style="fill:#dc3651;fill-opacity:1;stroke:none;stroke-width:1.11661386;stroke-opacity:1"
         inkscape:connector-curvature="0" />
    </g>
    <path
       style="color:#000000;font-style:normal;font-variant:normal;font-weight:normal;font-stretch:normal;font-size:medium;line-height:normal;font-family:sans-serif;text-indent:0;text-align:start;text-decoration:none;text-decoration-line:none;text-decoration-style:solid;text-decoration-color:#000000;letter-spacing:normal;word-spacing:normal;text-transform:none;direction:ltr;block-progression:tb;writing-mode:lr-tb;baseline-shift:baseline;text-anchor:start;white-space:normal;clip-rule:nonzero;display:none;overflow:visible;visibility:visible;opacity:1;isolation:auto;mix-blend-mode:normal;color-interpolation:sRGB;color-interpolation-filters:linearRGB;solid-color:#000000;solid-opacity:1;fill:#ffffff;fill-opacity:1;fill-rule:evenodd;stroke:none;stroke-width:50;stroke-linecap:round;stroke-linejoin:miter;stroke-miterlimit:4;stroke-dasharray:none;stroke-dashoffset:0;stroke-opacity:1;color-rendering:auto;image-rendering:auto;shape-rendering:auto;text-rendering:auto;enable-background:accumulate"
       d="M 104.89062,-31.310547 A 25.0025,25.0025 0 0 0 81.347656,-13.271484 C 42.20294,114.98577 68.934983,207.56822 127.51367,254.98438 c 58.57869,47.41615 142.72666,47.42974 207.15625,6.85546 l -0.13672,0.0859 c 81.01407,-50.2958 190.50248,-64.84606 265.29492,-4.46484 l 0.91016,0.73633 0.97461,0.64648 c 41.13787,27.28528 70.17466,78.60874 76.14258,129.79102 5.94405,50.97755 -9.12333,99.16649 -52.83789,129.14648 -39.57464,23.66956 -77.0387,18.42573 -121.69727,3.35937 -44.43824,-14.99202 -92.00203,-40.81079 -143.7832,-50.64843 -56.39675,-15.16259 -117.49549,-5.6158 -166.89844,23.17187 -49.15466,28.64299 -87.17187,78.13094 -92.39258,140.92383 -21.707779,118.8574 81.70947,236.07327 204.25586,217.75781 56.59282,-4.27671 108.50052,-26.29324 157.19727,-40.1875 48.48232,-13.83307 91.5275,-20.07423 135.19531,-1.14648 36.42979,25.14571 58.22913,65.96769 66.21289,112.11914 8.03436,46.44395 1.2891,97.38198 -17.20117,137.18168 l -8.28711,12.8301 a 25.0025,25.0025 0 1 0 42,27.1289 l 10.30469,-15.9531 0.70703,-1.4942 C 714.43633,1032.4541 722.29198,971.9361 712.375,914.60938 702.45802,857.28265 673.97134,802.29799 622.97266,768.22461 l -1.72852,-1.1543 -1.89453,-0.85351 C 559.94832,739.46805 501.08656,748.92579 447.98047,764.07812 394.87437,779.23046 345.18379,799.4885 299.3418,802.65039 l -1.01368,0.0703 -1.0039,0.15039 C 209.93618,816.08649 133.28823,728.11817 149.57227,642.61914 l 0.26757,-1.40039 0.10547,-1.41992 c 3.41326,-45.83735 29.93489,-80.83 67.86719,-102.9336 37.9323,-22.10359 86.78049,-29.49795 129.12305,-17.99804 l 1.01172,0.27343 1.02929,0.18946 c 41.02243,7.52571 87.87519,32.1551 138.36133,49.1875 50.48614,17.03239 108.69947,25.26746 164.15625,-8.28906 l 0.56055,-0.33985 0.53906,-0.36523 c 60.89912,-41.34326 82.54846,-111.30584 74.92578,-176.67969 -7.56927,-64.91588 -42.14268,-127.8962 -97.0293,-164.85937 -95.85679,-76.7398 -228.03648,-57.07918 -322.33007,1.46093 l -0.0664,0.043 -0.0684,0.043 C 260.26595,249.60757 199.0504,248.56177 158.97266,216.12109 118.89492,183.68042 93.678702,117.60888 129.16992,1.3222656 a 25.0025,25.0025 0 0 0 -24.2793,-32.6328126 z"
       id="path4384"
       inkscape:connector-curvature="0" />
  </g>
</svg>
